HIERARCHY
ROOT Hips
{
  OFFSET 5.80788e-005 67.184 3.4734
  CHANNELS 6 Xposition Yposition Zposition Zrotation Xrotation Yrotation
  JOINT Chest
  {
    OFFSET 0 8.7983 -4.7612
    CHANNELS 6 Xposition Yposition Zposition Zrotation Xrotation Yrotation
    JOINT Chest2
    {
      OFFSET 0 8.0291 0.4195
      CHANNELS 6 Xposition Yposition Zposition Zrotation Xrotation Yrotation
      JOINT Chest3
      {
        OFFSET 0 9.9351 -2.2114
        CHANNELS 6 Xposition Yposition Zposition Zrotation Xrotation Yrotation
        JOINT Neck
        {
          OFFSET 0 22.3885 -0.4656
          CHANNELS 6 Xposition Yposition Zposition Zrotation Xrotation Yrotation
          JOINT Head
          {
            OFFSET -0.0001 12.643 3.4389
            CHANNELS 6 Xposition Yposition Zposition Zrotation Xrotation Yrotation
            End Site
            {
              OFFSET 0.0001 17.6655 0.5274
            }
          }
        }
        JOINT LeftCollar
        {
          OFFSET 2.2603 21.606 7.4023
          CHANNELS 6 Xposition Yposition Zposition Zrotation Xrotation Yrotation
          JOINT LeftShoulder
          {
            OFFSET 13.5163 -1.1332 -5.0146
            CHANNELS 6 Xposition Yposition Zposition Zrotation Xrotation Yrotation
            JOINT LeftElbow
            {
              OFFSET -0.0995 -28.05 -0.2431
              CHANNELS 6 Xposition Yposition Zposition Zrotation Xrotation Yrotation
              JOINT LeftWrist
              {
                OFFSET 0.0679 -23.3996 -0.1402
                CHANNELS 6 Xposition Yposition Zposition Zrotation Xrotation Yrotation
                JOINT LeftFinger1
                {
                  OFFSET 0.7932 -9.069 2.5189
                  CHANNELS 6 Xposition Yposition Zposition Zrotation Xrotation Yrotation
                  JOINT LeftFinger11
                  {
                    OFFSET -0.8272 -3.3923 0.5977
                    CHANNELS 6 Xposition Yposition Zposition Zrotation Xrotation Yrotation
                    JOINT LeftFinger12
                    {
                      OFFSET -0.5649 -2.3158 0.4082
                      CHANNELS 6 Xposition Yposition Zposition Zrotation Xrotation Yrotation
                      End Site
                      {
                        OFFSET -0.4919 -1.6479 0.2673
                      }
                    }
                  }
                }
                JOINT LeftFinger2
                {
                  OFFSET 0.9159 -9.2044 0.2193
                  CHANNELS 6 Xposition Yposition Zposition Zrotation Xrotation Yrotation
                  JOINT LeftFinger21
                  {
                    OFFSET 0.0117 -4.1944 -0.0248
                    CHANNELS 6 Xposition Yposition Zposition Zrotation Xrotation Yrotation
                    JOINT LeftFinger22
                    {
                      OFFSET 0.0071 -2.3249 -0.0142
                      CHANNELS 6 Xposition Yposition Zposition Zrotation Xrotation Yrotation
                      End Site
                      {
                        OFFSET -0.1475 -2.0882 0.0028
                      }
                    }
                  }
                }
                JOINT LeftFinger3
                {
                  OFFSET 0.6113 -8.7231 -2.0637
                  CHANNELS 6 Xposition Yposition Zposition Zrotation Xrotation Yrotation
                  JOINT LeftFinger31
                  {
                    OFFSET -0.1927 -3.8059 -0.2383
                    CHANNELS 6 Xposition Yposition Zposition Zrotation Xrotation Yrotation
                    JOINT LeftFinger32
                    {
                      OFFSET -0.1091 -2.1688 -0.1362
                      CHANNELS 6 Xposition Yposition Zposition Zrotation Xrotation Yrotation
                      End Site
                      {
                        OFFSET -0.2358 -1.9176 -0.0906
                      }
                    }
                  }
                }
                JOINT LeftFinger4
                {
                  OFFSET -0.6151 -8.0947 -3.5641
                  CHANNELS 6 Xposition Yposition Zposition Zrotation Xrotation Yrotation
                  JOINT LeftFinger41
                  {
                    OFFSET -0.4882 -2.341 -0.6462
                    CHANNELS 6 Xposition Yposition Zposition Zrotation Xrotation Yrotation
                    JOINT LeftFinger42
                    {
                      OFFSET -0.3575 -1.7167 -0.4742
                      CHANNELS 6 Xposition Yposition Zposition Zrotation Xrotation Yrotation
                      End Site
                      {
                        OFFSET -0.4187 -1.5237 -0.3496
                      }
                    }
                  }
                }
                JOINT LeftFinger0
                {
                  OFFSET -1.42 -1.8761 1.4223
                  CHANNELS 6 Xposition Yposition Zposition Zrotation Xrotation Yrotation
                  JOINT LeftFinger01
                  {
                    OFFSET -1.1471 -3.4929 2.6334
                    CHANNELS 6 Xposition Yposition Zposition Zrotation Xrotation Yrotation
                    JOINT LeftFinger02
                    {
                      OFFSET -0.823 -2.3 1.6571
                      CHANNELS 6 Xposition Yposition Zposition Zrotation Xrotation Yrotation
                      End Site
                      {
                        OFFSET -0.5822 -1.6914 1.1582
                      }
                    }
                  }
                }
              }
            }
          }
        }
        JOINT RightCollar
        {
          OFFSET -2.2603 21.606 7.4023
          CHANNELS 6 Xposition Yposition Zposition Zrotation Xrotation Yrotation
          JOINT RightShoulder
          {
            OFFSET -13.5187 -1.1334 -5.0155
            CHANNELS 6 Xposition Yposition Zposition Zrotation Xrotation Yrotation
            JOINT RightElbow
            {
              OFFSET 0.0994 -28.0499 -0.2431
              CHANNELS 6 Xposition Yposition Zposition Zrotation Xrotation Yrotation
              JOINT RightWrist
              {
                OFFSET -0.0679 -23.3996 -0.1402
                CHANNELS 6 Xposition Yposition Zposition Zrotation Xrotation Yrotation
                JOINT RightFinger1
                {
                  OFFSET -0.7932 -9.0691 2.5189
                  CHANNELS 6 Xposition Yposition Zposition Zrotation Xrotation Yrotation
                  JOINT RightFinger11
                  {
                    OFFSET 0.8272 -3.3923 0.5977
                    CHANNELS 6 Xposition Yposition Zposition Zrotation Xrotation Yrotation
                    JOINT RightFinger12
                    {
                      OFFSET 0.565 -2.3158 0.4082
                      CHANNELS 6 Xposition Yposition Zposition Zrotation Xrotation Yrotation
                      End Site
                      {
                        OFFSET 0.4919 -1.6479 0.2673
                      }
                    }
                  }
                }
                JOINT RightFinger2
                {
                  OFFSET -0.916 -9.2044 0.2193
                  CHANNELS 6 Xposition Yposition Zposition Zrotation Xrotation Yrotation
                  JOINT RightFinger21
                  {
                    OFFSET -0.0117 -4.1944 -0.0248
                    CHANNELS 6 Xposition Yposition Zposition Zrotation Xrotation Yrotation
                    JOINT RightFinger22
                    {
                      OFFSET -0.0071 -2.3249 -0.0142
                      CHANNELS 6 Xposition Yposition Zposition Zrotation Xrotation Yrotation
                      End Site
                      {
                        OFFSET 0.1475 -2.0882 0.0028
                      }
                    }
                  }
                }
                JOINT RightFinger3
                {
                  OFFSET -0.6113 -8.7231 -2.0637
                  CHANNELS 6 Xposition Yposition Zposition Zrotation Xrotation Yrotation
                  JOINT RightFinger31
                  {
                    OFFSET 0.1927 -3.8059 -0.2383
                    CHANNELS 6 Xposition Yposition Zposition Zrotation Xrotation Yrotation
                    JOINT RightFinger32
                    {
                      OFFSET 0.1091 -2.1688 -0.1362
                      CHANNELS 6 Xposition Yposition Zposition Zrotation Xrotation Yrotation
                      End Site
                      {
                        OFFSET 0.2358 -1.9176 -0.0906
                      }
                    }
                  }
                }
                JOINT RightFinger4
                {
                  OFFSET 0.6151 -8.0947 -3.564
                  CHANNELS 6 Xposition Yposition Zposition Zrotation Xrotation Yrotation
                  JOINT RightFinger41
                  {
                    OFFSET 0.4882 -2.341 -0.6462
                    CHANNELS 6 Xposition Yposition Zposition Zrotation Xrotation Yrotation
                    JOINT RightFinger42
                    {
                      OFFSET 0.3574 -1.7166 -0.4742
                      CHANNELS 6 Xposition Yposition Zposition Zrotation Xrotation Yrotation
                      End Site
                      {
                        OFFSET 0.4187 -1.5237 -0.3496
                      }
                    }
                  }
                }
                JOINT RightFinger0
                {
                  OFFSET 1.4199 -1.8761 1.4221
                  CHANNELS 6 Xposition Yposition Zposition Zrotation Xrotation Yrotation
                  JOINT RightFinger01
                  {
                    OFFSET 1.1472 -3.4929 2.6336
                    CHANNELS 6 Xposition Yposition Zposition Zrotation Xrotation Yrotation
                    JOINT RightFinger02
                    {
                      OFFSET 0.8229 -2.3 1.6571
                      CHANNELS 6 Xposition Yposition Zposition Zrotation Xrotation Yrotation
                      End Site
                      {
                        OFFSET 0.5822 -1.6914 1.1582
                      }
                    }
                  }
                }
              }
            }
          }
        }
      }
    }
  }
  JOINT RightHip
  {
    OFFSET -9.412 3.9771 -0.7758
    CHANNELS 6 Xposition Yposition Zposition Zrotation Xrotation Yrotation
    JOINT RightKnee
    {
      OFFSET -0.7531 -40.938 0
      CHANNELS 6 Xposition Yposition Zposition Zrotation Xrotation Yrotation
      JOINT RightAnkle
      {
        OFFSET 0 -40.1986 0
        CHANNELS 6 Xposition Yposition Zposition Zrotation Xrotation Yrotation
        JOINT RightToe
        {
          OFFSET 0 -4.4182 9.239
          CHANNELS 6 Xposition Yposition Zposition Zrotation Xrotation Yrotation
          End Site
          {
            OFFSET 0 0 6.1981
          }
        }
      }
    }
  }
  JOINT LeftHip
  {
    OFFSET 9.4119 3.9773 -0.7758
    CHANNELS 6 Xposition Yposition Zposition Zrotation Xrotation Yrotation
    JOINT LeftKnee
    {
      OFFSET 0.7532 -40.9383 0
      CHANNELS 6 Xposition Yposition Zposition Zrotation Xrotation Yrotation
      JOINT LeftAnkle
      {
        OFFSET 0 -40.1986 0
        CHANNELS 6 Xposition Yposition Zposition Zrotation Xrotation Yrotation
        JOINT LeftToe
        {
          OFFSET 0 -4.4182 9.239
          CHANNELS 6 Xposition Yposition Zposition Zrotation Xrotation Yrotation
          End Site
          {
            OFFSET 0 0 6.1981
          }
        }
      }
    }
  }
}
MOTION
Frames:	4
Frame Time:	0.0333333
5.80788e-005 67.184 3.4734 0 0 -0 0 8.7983 -4.7612 0 0 -0 0 8.0291 0.4195 0 0 -0 0 9.9351 -2.2114 0 0 -0 0 22.3885 -0.4656 0 0 -0 -0.0001 12.643 3.4389 0 0 -0 2.2603 21.606 7.4023 0 0 -12.5014 13.5163 -1.1332 -5.0146 88.1196 14.2451 10.6914 -0.0995 -28.05 -0.2431 -0.00160068 -0.00239207 0.000740045 0.0679 -23.3996 -0.1402 -8.4365e-005 7.00714e-005 -9.52055e-007 0.7932 -9.069 2.5189 9.93923e-017 -1.98785e-016 -1.59028e-015 -0.8272 -3.3923 0.5977 9.93923e-017 -5.96354e-016 -1.59028e-015 -0.5649 -2.3158 0.4082 -9.93923e-017 -5.96354e-016 -1.59028e-015 0.9159 -9.2044 0.2193 9.93923e-017 -1.98785e-016 -1.59028e-015 0.0117 -4.1944 -0.0248 -0.0128176 0.00232552 8.52707e-005 0.0071 -2.3249 -0.0142 9.93923e-017 5.96354e-016 -0 0.6113 -8.7231 -2.0637 9.93923e-017 -1.98785e-016 -1.59028e-015 -0.1927 -3.8059 -0.2383 -0.0160551 0.00299681 0.000857156 -0.1091 -2.1688 -0.1362 -2.48481e-016 0 3.18055e-015 -0.6151 -8.0947 -3.5641 9.93923e-017 -1.98785e-016 -1.59028e-015 -0.4882 -2.341 -0.6462 -0.0125865 0.0031206 0.00282719 -0.3575 -1.7167 -0.4742 0 1.98785e-016 -0 -1.42 -1.8761 1.4223 9.93923e-017 -1.98785e-016 -1.59028e-015 -1.1471 -3.4929 2.6334 9.93923e-017 -5.96354e-016 -1.59028e-015 -0.823 -2.3 1.6571 -9.93923e-017 -5.96354e-016 -1.59028e-015 -2.2603 21.606 7.4023 -0.865644 0.16582 7.03859 -13.5187 -1.1334 -5.0155 -88.0329 10.2057 -10.5567 0.0994 -28.0499 -0.2431 0.0015593 -0.00248883 -0.000788628 -0.0679 -23.3996 -0.1402 7.87605e-005 4.10553e-005 1.24965e-005 -0.7932 -9.0691 2.5189 -3.97569e-016 -7.95139e-016 3.18055e-015 0.8272 -3.3923 0.5977 -1.98785e-016 -3.97569e-016 3.18055e-015 0.565 -2.3158 0.4082 -1.98785e-016 0 3.18055e-015 -0.916 -9.2044 0.2193 -3.97569e-016 -7.95139e-016 3.18055e-015 -0.0117 -4.1944 -0.0248 0.0129473 0.00231697 -8.70038e-005 -0.0071 -2.3249 -0.0142 9.93923e-017 -7.95139e-016 1.59028e-015 -0.6113 -8.7231 -2.0637 -3.97569e-016 -7.95139e-016 3.18055e-015 0.1927 -3.8059 -0.2383 0.0163314 0.00303369 -0.000872333 0.1091 -2.1688 -0.1362 3.97569e-016 7.95139e-016 -3.18055e-015 0.6151 -8.0947 -3.564 -3.97569e-016 -7.95139e-016 3.18055e-015 0.4882 -2.341 -0.6462 0.0145763 0.00367772 -0.00326275 0.3574 -1.7166 -0.4742 9.93923e-017 -3.97569e-016 -0 1.4199 -1.8761 1.4221 -3.97569e-016 -7.95139e-016 3.18055e-015 1.1472 -3.4929 2.6336 -1.98785e-016 -3.97569e-016 3.18055e-015 0.8229 -2.3 1.6571 -1.98785e-016 0 3.18055e-015 -9.412 3.9771 -0.7758 3.42485 1.36937 -0.0640303 -0.7531 -40.938 0 0.000136572 0.69354 0.00145564 1.77636e-015 -40.1986 -1.11022e-016 -3.42573 -2.06297 -0.0607933 8.88178e-016 -4.4182 9.239 -3.19502e-024 0 -1.48106e-024 9.4119 3.9773 -0.7758 -3.42498 1.36123 0.0639712 0.7532 -40.9383 2.22045e-016 -6.769e-005 0.712612 -0.0012277 8.88179e-016 -40.1986 0 3.42582 -2.07388 0.0612819 -8.88178e-016 -4.4182 9.239 2.55305e-023 0 -2.31416e-026 
-22.522 8.59437 41.0243 -1.23918e-014 4.5103e-015 -130 0 8.7983 -4.7612 -2.9061 10.324 -2.52369 7.10543e-015 8.0291 0.4195 -5.47669 20.756 -4.61833 0 9.9351 -2.2114 -5.4767 20.756 -4.61832 0 22.3885 -0.4656 0.000101756 -0.000319601 8.75221e-005 -0.0001 12.643 3.4389 0.0808345 -0.72354 -0.245862 2.2603 21.606 7.4023 -33.7974 2.92215 -67.0209 13.5163 -1.1332 -5.0146 81.3416 -10.6994 11.766 -0.0995 -28.05 -0.2431 5.78652 -20.6704 4.09433 0.0679 -23.3996 -0.1402 -2.26879 -28.6157 2.95045 0.7932 -9.069 2.5189 1.63866e-006 7.09239e-006 -7.06962e-006 -0.8272 -3.3923 0.5977 -1.59028e-015 -4.77083e-015 3.97569e-016 -0.5649 -2.3158 0.4082 -1.10348e-032 -1.59028e-015 -3.97569e-016 0.9159 -9.2044 0.2193 1.63866e-006 7.09239e-006 -7.06962e-006 0.0117 -4.1944 -0.0248 -0.0128406 0.00231822 9.07227e-005 0.0071 -2.3249 -0.0142 -3.18055e-015 -1.59028e-015 3.97569e-016 0.6113 -8.7231 -2.0637 1.63866e-006 7.09239e-006 -7.06962e-006 -0.1927 -3.8059 -0.2383 -0.016019 0.00297881 0.000857934 -0.1091 -2.1688 -0.1362 -0 0 3.97569e-016 -0.6151 -8.0947 -3.5641 1.63866e-006 7.09239e-006 -7.06962e-006 -0.4882 -2.341 -0.6462 -0.012632 0.00312271 0.00283714 -0.3575 -1.7167 -0.4742 -1.59028e-015 0 -0 -1.42 -1.8761 1.4223 1.63866e-006 7.09239e-006 -7.06962e-006 -1.1471 -3.4929 2.6334 -1.59028e-015 -4.77083e-015 3.97569e-016 -0.823 -2.3 1.6571 -1.10348e-032 -1.59028e-015 -3.97569e-016 -2.2603 21.606 7.4023 49.6945 10.8397 33.3469 -13.5187 -1.1334 -5.0155 -60.3769 1.66278 7.2336 0.0994 -28.0499 -0.2431 32.9545 -62.5852 30.0943 -0.0679 -23.3996 -0.1402 16.6358 23.2087 -1.0144 -0.7932 -9.0691 2.5189 9.54166e-015 0 -7.95139e-016 0.8272 -3.3923 0.5977 6.36111e-015 -9.93923e-016 -3.97569e-016 0.565 -2.3158 0.4082 6.36111e-015 -3.57812e-015 -0 -0.916 -9.2044 0.2193 9.54166e-015 0 -7.95139e-016 -0.0117 -4.1944 -0.0248 0.0129645 0.00232366 -9.15839e-005 -0.0071 -2.3249 -0.0142 1.65521e-032 7.95139e-016 -1.19271e-015 -0.6113 -8.7231 -2.0637 9.54166e-015 0 -7.95139e-016 0.1927 -3.8059 -0.2383 0.0163198 0.0030342 -0.000871033 0.1091 -2.1688 -0.1362 3.18055e-015 4.37326e-015 -3.97569e-016 0.6151 -8.0947 -3.564 9.54166e-015 0 -7.95139e-016 0.4882 -2.341 -0.6462 0.0145947 0.00368112 -0.00326388 0.3574 -1.7166 -0.4742 -6.36111e-015 1.11319e-014 -3.97569e-016 1.4199 -1.8761 1.4221 9.54166e-015 0 -7.95139e-016 1.1472 -3.4929 2.6336 6.36111e-015 -9.93923e-016 -3.97569e-016 0.8229 -2.3 1.6571 6.36111e-015 -3.57812e-015 -0 -9.412 3.9771 -0.7758 -113.527 -24.9434 -97.4456 -0.7531 -40.938 -7.10543e-015 162.345 60.1379 -154.807 1.77636e-015 -40.1986 -2.22045e-016 -3.07421 -9.93717 -36.5627 0 -4.4182 9.239 8.50036e-007 -3.79389e-007 -7.66422e-009 9.4119 3.9773 -0.7758 19.0469 -50.7562 14.6469 0.7532 -40.9383 0 178.45 18.8658 168.044 7.10543e-015 -40.1986 2.66453e-015 -8.41561 2.79175 58.4358 0 -4.4182 9.239 3.18055e-015 -6.36111e-015 -0 
-22.522 8.59437 41.0243 -1.23918e-014 4.5103e-015 -130 0 8.7983 -4.7612 -2.9061 10.324 -2.52369 7.10543e-015 8.0291 0.4195 -5.47669 20.756 -4.61833 0 9.9351 -2.2114 -5.4767 20.756 -4.61832 0 22.3885 -0.4656 0.000101756 -0.000319601 8.75221e-005 -0.0001 12.643 3.4389 0.233723 -2.1764 -0.736394 2.2603 21.606 7.4023 -33.7974 2.92215 -67.0209 13.5163 -1.1332 -5.0146 81.3416 -10.6993 11.766 -0.0995 -28.05 -0.2431 5.20615 -21.8375 3.9131 0.0679 -23.3996 -0.1402 -2.26871 -28.6157 2.95049 0.7932 -9.069 2.5189 -1.59028e-015 -1.27222e-014 -0 -0.8272 -3.3923 0.5977 1.59028e-015 -1.74931e-014 7.95139e-016 -0.5649 -2.3158 0.4082 3.18055e-015 -1.59028e-014 -3.97569e-016 0.9159 -9.2044 0.2193 -1.59028e-015 -1.27222e-014 -0 0.0117 -4.1944 -0.0248 -0.0128255 0.00233004 8.57311e-005 0.0071 -2.3249 -0.0142 -0 -3.18055e-015 -0 0.6113 -8.7231 -2.0637 -1.59028e-015 -1.27222e-014 -0 -0.1927 -3.8059 -0.2383 -0.0160498 0.00298701 0.000850812 -0.1091 -2.1688 -0.1362 2.20695e-032 1.59028e-015 -7.95139e-016 -0.6151 -8.0947 -3.5641 -1.59028e-015 -1.27222e-014 -0 -0.4882 -2.341 -0.6462 -0.0126267 0.00311235 0.00282764 -0.3575 -1.7167 -0.4742 1.59028e-015 -4.77083e-015 3.97569e-016 -1.42 -1.8761 1.4223 -1.59028e-015 -1.27222e-014 -0 -1.1471 -3.4929 2.6334 1.59028e-015 -1.74931e-014 7.95139e-016 -0.823 -2.3 1.6571 3.18055e-015 -1.59028e-014 -3.97569e-016 -2.2603 21.606 7.4023 49.6945 10.8397 33.3469 -13.5187 -1.1334 -5.0155 -60.3416 2.21646 7.2339 0.0994 -28.0499 -0.2431 33.3741 -63.333 30.4935 -0.0679 -23.3996 -0.1402 16.1047 22.7142 -1.00437 -0.7932 -9.0691 2.5189 0 3.97569e-016 -0 0.8272 -3.3923 0.5977 5.51738e-033 7.95139e-016 -3.97569e-016 0.565 -2.3158 0.4082 -0 -1.59028e-015 -0 -0.916 -9.2044 0.2193 0 3.97569e-016 -0 -0.0117 -4.1944 -0.0248 0.0129327 0.00231833 -8.03426e-005 -0.0071 -2.3249 -0.0142 3.18055e-015 -5.96354e-016 3.97569e-016 -0.6113 -8.7231 -2.0637 0 3.97569e-016 -0 0.1927 -3.8059 -0.2383 0.0163702 0.00304314 -0.000879418 0.1091 -2.1688 -0.1362 6.36111e-015 0 -0 0.6151 -8.0947 -3.564 0 3.97569e-016 -0 0.4882 -2.341 -0.6462 0.0146034 0.00368672 -0.00326925 0.3574 -1.7166 -0.4742 -3.18055e-015 9.93923e-016 -1.19271e-015 1.4199 -1.8761 1.4221 0 3.97569e-016 -0 1.1472 -3.4929 2.6336 5.51738e-033 7.95139e-016 -3.97569e-016 0.8229 -2.3 1.6571 -0 -1.59028e-015 -0 -9.412 3.9771 -0.7758 -113.527 -24.9434 -97.4456 -0.7531 -40.938 -7.10543e-015 162.345 60.1379 -154.807 1.77636e-015 -40.1986 -2.22045e-016 -3.07421 -9.93717 -36.5627 0 -4.4182 9.239 8.50036e-007 -3.79389e-007 -7.66422e-009 9.4119 3.9773 -0.7758 19.0469 -50.7562 14.6469 0.7532 -40.9383 0 178.45 18.8658 168.044 7.10543e-015 -40.1986 2.66453e-015 -8.41561 2.79175 58.4358 0 -4.4182 9.239 3.18055e-015 -6.36111e-015 -0 
-22.522 8.59437 41.0243 -1.23918e-014 4.5103e-015 -130 0 8.7983 -4.7612 -2.9061 10.324 -2.52369 7.10543e-015 8.0291 0.4195 -5.47669 20.756 -4.61833 0 9.9351 -2.2114 -5.4767 20.756 -4.61832 0 22.3885 -0.4656 0.000101756 -0.000319601 8.75221e-005 -0.0001 12.643 3.4389 0.374918 -3.63647 -1.22565 2.2603 21.606 7.4023 -33.7974 2.92215 -67.0209 13.5163 -1.1332 -5.0146 81.3417 -10.6993 11.766 -0.0995 -28.05 -0.2431 4.61618 -23.0042 3.71727 0.0679 -23.3996 -0.1402 -2.26866 -28.6157 2.95049 0.7932 -9.069 2.5189 -2.20578e-007 -6.84761e-006 5.60453e-006 -0.8272 -3.3923 0.5977 -1.59028e-015 -1.59028e-015 7.95139e-016 -0.5649 -2.3158 0.4082 1.59028e-015 -4.77083e-015 7.95139e-016 0.9159 -9.2044 0.2193 -2.20578e-007 -6.84761e-006 5.60453e-006 0.0117 -4.1944 -0.0248 -0.0128325 0.00233025 8.61404e-005 0.0071 -2.3249 -0.0142 -4.77083e-015 3.18055e-015 2.50469e-014 0.6113 -8.7231 -2.0637 -2.20578e-007 -6.84761e-006 5.60453e-006 -0.1927 -3.8059 -0.2383 -0.0160798 0.0030013 0.000857753 -0.1091 -2.1688 -0.1362 3.18055e-015 -1.59028e-015 1.19271e-015 -0.6151 -8.0947 -3.5641 -2.20578e-007 -6.84761e-006 5.60453e-006 -0.4882 -2.341 -0.6462 -0.0126404 0.00314176 0.00283906 -0.3575 -1.7167 -0.4742 -0 0 3.97569e-016 -1.42 -1.8761 1.4223 -2.20578e-007 -6.84761e-006 5.60453e-006 -1.1471 -3.4929 2.6334 -1.59028e-015 -1.59028e-015 7.95139e-016 -0.823 -2.3 1.6571 1.59028e-015 -4.77083e-015 7.95139e-016 -2.2603 21.606 7.4023 49.6945 10.8397 33.3469 -13.5187 -1.1334 -5.0155 -60.3062 2.76969 7.23383 0.0994 -28.0499 -0.2431 33.8166 -64.0795 30.9156 -0.0679 -23.3996 -0.1402 15.5754 22.2193 -0.999398 -0.7932 -9.0691 2.5189 -6.36111e-015 -1.21259e-014 5.56597e-015 0.8272 -3.3923 0.5977 -3.18055e-015 -1.2921e-014 4.77083e-015 0.565 -2.3158 0.4082 -3.18055e-015 -1.19271e-014 4.77083e-015 -0.916 -9.2044 0.2193 -6.36111e-015 -1.21259e-014 5.56597e-015 -0.0117 -4.1944 -0.0248 0.0129298 0.00230867 -9.10197e-005 -0.0071 -2.3249 -0.0142 -6.20964e-006 -1.53102e-006 -1.51494e-007 -0.6113 -8.7231 -2.0637 -6.36111e-015 -1.21259e-014 5.56597e-015 0.1927 -3.8059 -0.2383 0.0163224 0.00303463 -0.000880991 0.1091 -2.1688 -0.1362 1.59028e-014 9.93923e-016 -3.18055e-015 0.6151 -8.0947 -3.564 -6.36111e-015 -1.21259e-014 5.56597e-015 0.4882 -2.341 -0.6462 0.0145773 0.00367351 -0.00326573 0.3574 -1.7166 -0.4742 -6.36111e-015 9.93923e-016 -1.59028e-015 1.4199 -1.8761 1.4221 -6.36111e-015 -1.21259e-014 5.56597e-015 1.1472 -3.4929 2.6336 -3.18055e-015 -1.2921e-014 4.77083e-015 0.8229 -2.3 1.6571 -3.18055e-015 -1.19271e-014 4.77083e-015 -9.412 3.9771 -0.7758 -113.527 -24.9434 -97.4456 -0.7531 -40.938 -7.10543e-015 162.345 60.1379 -154.807 1.77636e-015 -40.1986 -2.22045e-016 -3.07421 -9.93717 -36.5627 0 -4.4182 9.239 8.50036e-007 -3.79389e-007 -7.66422e-009 9.4119 3.9773 -0.7758 19.0469 -50.7562 14.6469 0.7532 -40.9383 0 178.45 18.8658 168.044 7.10543e-015 -40.1986 2.66453e-015 -8.41561 2.79175 58.4358 0 -4.4182 9.239 3.18055e-015 -6.36111e-015 -0 
